<svg width="62" height="62" viewBox="0 0 62 62" fill="none" xmlns="http://www.w3.org/2000/svg">
<circle cx="31" cy="31" r="31" fill="white"/>
<path d="M61.8067 30.9293C61.8283 30.194 62.0222 19.6845 55.8027 12.8432C55.5264 12.2317 54.2157 9.76697 49.9855 6.75469C48.1101 5.30001 46.1182 4.0021 44.03 2.87409L44.0217 2.86997C43.7577 2.72869 38.5994 0 32.3387 0C31.8633 0 31.3931 0.0278438 30.928 0.0598126V0.0515625C26.1543 -0.0525938 21.4126 1.17562 18.555 2.46572C16.0202 3.61041 13.2059 5.52956 13.0028 5.67806C9.4924 7.64156 2.83568 15.5213 2.30871 19.6969C0.181246 22.4163 -1.59663 34.6314 2.31284 42.0719C5.0539 52.4123 15.3726 57.5871 16.1935 57.9841C16.6926 58.3027 22.316 61.7791 29.2243 61.7791C29.5141 61.7791 31.2662 61.876 31.8912 61.876C39.3584 61.876 50.4237 56.6125 52.7399 52.4896C59.1038 47.8345 62.4027 35.838 61.8067 30.9293ZM16.2502 46.463C13.2915 41.6769 11.6054 35.4234 11.2445 33.9869C12.1809 32.5834 16.7998 25.773 19.4316 23.7239C20.9217 23.9982 27.1443 25.1408 33.0131 26.203C33.7505 28.1139 36.9855 36.5454 37.9116 39.8001C36.8907 41.0108 32.8801 45.6802 28.9315 49.3371C24.7394 49.3567 17.6094 46.9384 16.2502 46.463ZM53.4432 12.9731C53.4309 13.4372 53.3205 15.0872 52.5306 16.9816C50.9621 16.1803 47.0196 14.4643 41.6158 14.1745C40.7981 12.9669 37.7208 8.75634 32.8605 5.83584C33.5257 4.53441 34.4517 2.94731 34.9931 2.46366C35.1685 2.41416 35.4407 2.36878 35.8553 2.36878C38.4612 2.36878 42.9637 4.0755 43.3556 4.22709C43.7711 4.44675 51.8644 8.80481 53.4432 12.9731ZM10.0782 33.0124C6.54818 32.4101 4.44959 31.3129 3.82259 30.9416C2.50981 26.1803 3.56684 21.0344 3.72978 20.2971C5.02503 17.9809 8.71278 12.077 11.1455 10.956C13.6669 10.4414 16.8112 11.0808 18.092 11.3933C17.9713 13.0587 17.7393 17.7117 18.4282 22.5947C15.6376 24.8407 11.2208 31.3057 10.0782 33.0124ZM30.6124 1.57781C31.4044 1.63659 32.5666 1.80984 33.3627 2.046C32.5687 3.102 31.755 4.66744 31.3704 5.44088C29.7513 5.70591 23.602 6.88153 18.7778 10.0093C17.8053 9.7515 14.8683 9.06366 12.087 9.30084C12.7759 7.96744 13.8051 6.98156 13.9154 6.8805C14.298 6.60619 21.6632 1.45303 30.6124 1.56441V1.57781ZM50.3051 40.8612C49.0986 40.8117 44.4497 40.5467 39.3522 39.3494C38.3756 35.9442 35.1509 27.5478 34.4136 25.6379C36.7596 22.294 39.1412 18.9753 41.5581 15.6822C47.4238 16.004 51.5427 18.1438 52.3398 18.5903C55.7378 24.0549 56.4834 29.6361 56.5855 30.5683C54.7808 36.1845 51.2116 39.9661 50.3051 40.8612ZM1.70646 27.3477C1.79309 28.6533 2.00243 30.0279 2.3809 31.3871C2.04065 32.2679 1.80461 33.1854 1.67759 34.121C1.46222 31.8679 1.47189 29.5989 1.70646 27.3477ZM11.6518 51.4367C13.207 49.9383 15.1241 48.4801 15.8676 47.9294C17.5485 48.5213 24.4517 50.8551 28.8521 50.8551C29.6018 51.8605 32.0531 55.0089 35.0581 57.4159C33.1874 59.2463 30.4856 60.1105 30.0081 60.2539C21.6271 60.4787 13.4648 55.7679 11.6518 51.4367ZM33.7856 60.2415C34.7364 59.6877 35.7274 58.9586 36.5472 58.0357C37.8848 57.8511 43.6247 56.8631 48.8119 53.0527C49.1543 53.0898 49.7184 53.1352 50.3485 53.1176C47.2362 56.167 39.642 59.5732 33.7856 60.2415ZM49.6916 51.6038C51.555 46.7486 51.4756 43.0877 51.3838 41.9182C52.4068 40.9159 55.9172 37.1755 57.8652 31.4892C58.9151 31.6645 59.5977 31.9316 59.9216 32.0812C60.034 32.4937 60.2216 33.4465 60.1154 34.8913C59.3214 40.0919 56.5803 47.8851 51.7788 51.3305C51.2962 51.5769 50.4464 51.6306 49.6916 51.6038Z" fill="black"/>
</svg>