<svg width="64" height="46" viewBox="0 0 64 46" fill="none" xmlns="http://www.w3.org/2000/svg">
<path d="M0 0V45.5541H64V44.1572V0H0ZM2.79475 16.4948H9.6355V31.3005H2.79475V16.4948ZM30.6034 30.8941C28.8869 30.602 27.3531 29.7876 26.1701 28.6059C24.6759 27.1106 23.7556 25.058 23.7554 22.7771C23.7558 20.4954 24.6759 18.4436 26.1701 16.9474C27.3532 15.7656 28.887 14.9521 30.6034 14.6591V30.8941ZM20.9605 22.7771C20.961 28.3999 25.167 33.0304 30.6034 33.7186V42.7585H2.79475V34.0951H12.4303V13.7H2.79475V2.79475H30.6029L30.6034 11.8357C25.1665 12.5257 20.961 17.1543 20.9605 22.7771ZM61.2054 31.3005H54.3646V16.4948H61.2054V31.3005ZM61.2054 13.7H51.5694V34.0951H61.2054V42.7585H33.3981L33.3976 33.7186C38.834 33.0295 43.0391 28.3999 43.0401 22.7771C43.0391 17.1543 38.8336 12.5259 33.3976 11.8356L33.3971 2.79463H61.2054V13.7ZM33.3976 30.8941V14.6591C35.1141 14.9523 36.6474 15.7658 37.83 16.9474C39.3244 18.4435 40.2445 20.4954 40.2449 22.7771C40.2444 25.058 39.3244 27.1106 37.83 28.6059C36.6473 29.7876 35.114 30.601 33.3976 30.8941Z" fill="black"/>
</svg>
