<svg width="66" height="66" viewBox="0 0 66 66" fill="none" xmlns="http://www.w3.org/2000/svg">
<g clip-path="url(#clip0_0_38)">
<path d="M66 33C66 14.7775 51.2225 0 33 0C14.7775 0 0 14.7775 0 33C0 51.2225 14.7775 66 33 66C51.2225 66 66 51.2225 66 33Z" fill="#32BEA6"/>
<path d="M19.5393 28.6905C19.4728 28.89 19.26 28.9964 19.0738 28.9299L13.0883 27.0013C12.8888 26.9348 12.7824 26.7219 12.8489 26.5357L13.1016 25.7111L19.792 27.8658L19.5393 28.6905Z" fill="#487206"/>
<path d="M20.7231 53.8694L20.5236 55.266C20.5236 55.266 24.8464 57.0217 32.9468 57.0217C41.0472 57.0217 45.4631 55.266 45.4631 55.266L45.2636 53.8694H20.7231Z" fill="#F2B906"/>
<path d="M51.2805 20.1487C50.5224 15.48 47.9686 14.8815 47.9686 14.8815L38.3785 10.971L37.075 10.3325L32.9383 10L28.7219 10.3458L27.4184 10.9843L17.8283 14.8948C17.8283 14.8948 15.2878 15.4933 14.5163 20.162L13 26.0411L19.6904 28.1959L20.4619 25.6687C20.4619 25.6687 23.2684 33.5695 20.6348 54.1995C20.6348 54.1995 24.838 55.942 32.8585 55.942C40.8791 55.942 45.1753 54.1995 45.1753 54.1995C42.5417 33.5695 45.3482 25.6687 45.3482 25.6687L46.1197 28.1959L52.8102 26.0411L51.2805 20.1487Z" fill="#EFCE0F"/>
<path d="M38.4801 12.0641L37.5756 10.0158L33.0399 9.68323L28.4244 10.0158L27.52 12.0641L31.6832 16.387H34.3168L38.4801 12.0641Z" fill="#C49F05"/>
<path d="M46.4607 28.6905C46.5272 28.89 46.7401 28.9964 46.9263 28.9299L52.9118 27.0013C53.1113 26.9348 53.2177 26.7219 53.1512 26.5357L52.8985 25.7111L46.208 27.8658L46.4607 28.6905Z" fill="#487206"/>
<path d="M38.0012 10.4547C38.0012 10.4547 36.0326 10.202 33.0399 10.202C30.0471 10.202 28.0121 10.4547 28.0121 10.4547L28.8102 9.56352C28.8102 9.56352 30.2467 9.3374 33.0399 9.3374C35.8464 9.3374 37.2164 9.56352 37.2164 9.56352L38.0012 10.4547Z" fill="#578408"/>
<path d="M37.2164 9.55017C37.2164 9.55017 39.3313 11.2261 38.2273 12.9686C37.1233 14.711 33.572 17.5042 33.572 17.5042L33.0399 16.1342C33.0266 16.1342 39.0786 12.5695 37.2164 9.55017Z" fill="#487206"/>
<path d="M28.7968 9.55017C28.7968 9.55017 26.6687 11.2261 27.7727 12.9686C28.8767 14.711 32.428 17.5042 32.428 17.5042L33.0266 16.1342C33.0266 16.1342 26.9347 12.5695 28.7968 9.55017Z" fill="#416305"/>
<path d="M33.5719 18.7546H32.4147V16.5732L33.0266 16.1343H33.5719V18.7546Z" fill="#487206"/>
</g>
<defs>
<clipPath id="clip0_0_38">
<rect width="66" height="66" fill="white"/>
</clipPath>
</defs>
</svg>
