<svg width="64" height="54" viewBox="0 0 64 54" fill="none" xmlns="http://www.w3.org/2000/svg">
<path d="M61.0838 17.0144H29.6946V21.7175H25.2681V17.0011C18.3517 17.8161 12.3909 22.6784 10.1505 29.2169C9.15594 28.6489 8.02856 28.3227 6.80132 28.3227C3.03879 28.3227 0 31.3728 0 35.1354C0 38.8979 3.05594 41.948 6.81847 41.948C8.04572 41.948 9.1991 41.6216 10.1937 41.0539C12.6532 48.2323 19.4564 53.3947 27.4684 53.3947C37.5088 53.3947 45.6541 45.2903 45.7252 35.2668L61.6896 31.3665C63.1687 31.0082 64 30.1555 64 28.0806V19.5043C64 17.9827 62.6054 17.0144 61.0838 17.0144Z" fill="black"/>
<path d="M27.4814 9.12966C28.7036 9.12966 29.6946 8.13867 29.6946 6.91641V2.21325C29.6946 0.990983 28.7036 0 27.4814 0C26.2591 0 25.2681 0.990983 25.2681 2.21325V6.91641C25.2681 8.13867 26.2591 9.12966 27.4814 9.12966Z" fill="black"/>
<path d="M17.8842 11.7629C18.3166 12.195 18.8826 12.4111 19.4492 12.4111C20.0158 12.4111 20.5821 12.195 21.0143 11.7629C21.8785 10.8983 21.8785 9.49705 21.0143 8.6325L17.6886 5.30681C16.824 4.44281 15.423 4.44281 14.5585 5.30681C13.6942 6.17136 13.6942 7.57263 14.5585 8.43718L17.8842 11.7629Z" fill="black"/>
<path d="M35.4906 12.4111C36.0572 12.4111 36.6238 12.195 37.0556 11.7626L40.381 8.43693C41.2453 7.57266 41.2453 6.17112 40.3808 5.30684C39.5162 4.44229 38.1147 4.44257 37.2507 5.30712L33.9255 8.63281C33.0613 9.49708 33.0613 10.8983 33.9258 11.7626C34.3579 12.1953 34.924 12.4111 35.4906 12.4111Z" fill="black"/>
</svg>
